# WaveFront *.obj file (generated by CINEMA 4D)

mtllib ./cursor.mtl

v 0.12305099517107 -1.08177530765533 0.125
v -0.72285962104797 0.73052573204041 0.125
v 0.34958863258362 -0.97603648900986 0.125
v -0.49632200598717 0.83626455068588 0.125
v 0.34958863258362 -0.97603648900986 -0.125
v -0.49632200598717 0.83626455068588 -0.125
v 0.12305099517107 -1.08177530765533 -0.125
v -0.72285962104797 0.73052573204041 -0.125
# 8 vertices

vn 0 0 1
vn 0.90615051984787 0.42295533418655 0
vn 0 0 -1
vn -0.90615051984787 -0.42295530438423 0
vn -0.42295530438423 0.90615051984787 0
vn 0.42295530438423 -0.90615051984787 0
# 6 normals

vt 0.92659038305283 0.50776869058609 0
vt 0.92659038305283 0.99223136901855 0
vt 0.99165338277817 0.99223136901855 0
vt 0.99165338277817 0.50776869058609 0
vt 0.2536153793335 0.00776863098145 0
vt 0.2536153793335 0.49223136901855 0
vt 0.31867840886116 0.49223136901855 0
vt 0.31867840886116 0.00776863098145 0
vt 0.17185911536217 0.00776863098145 0
vt 0.17185911536217 0.49223136901855 0
vt 0.23692215979099 0.49223136901855 0
vt 0.23692215979099 0.00776863098145 0
vt 0.00834660790861 0.00776863098145 0
vt 0.00834660790861 0.49223136901855 0
vt 0.0734096467495 0.49223136901855 0
vt 0.0734096467495 0.00776863098145 0
vt 0.3353716135025 0.27796697616577 0
vt 0.3353716135025 0.33852481842041 0
vt 0.40043467283249 0.33852481842041 0
vt 0.40043467283249 0.27796697616577 0
vt 0.41712787747383 0.27796697616577 0
vt 0.41712787747383 0.33852481842041 0
vt 0.4821909070015 0.33852481842041 0
vt 0.4821909070015 0.27796697616577 0
# 24 texture coordinates

o Handle
usemtl Arrow
f 3/4/1 4/3/1 2/2/1 1/1/1
f 5/8/2 6/7/2 4/6/2 3/5/2
f 7/12/3 8/11/3 6/10/3 5/9/3
f 1/16/4 2/15/4 8/14/4 7/13/4
f 4/20/5 6/19/5 8/18/5 2/17/5
f 5/24/6 3/23/6 1/22/6 7/21/6

v -0.81336450576782 -0.87724459171295 0.125
v -0.81336450576782 1.12275540828705 0.125
v -0.0800311639905 -0.32724460959435 0.13125966489315
v 0.88663548231125 -0.27724462747574 0.125
v -0.0800311639905 -0.32724460959435 -0.125
v 0.88663548231125 -0.27724462747574 -0.125
v -0.81336450576782 -0.87724459171295 -0.125
v -0.81336450576782 1.12275540828705 -0.125
# 8 vertices

vn 0.59999996423721 -0.80000007152557 0
vn 0.34063249826431 -0.94019651412964 0
vn 0.05165506899357 -0.99866497516632 0
vn -1 0 0
vn 0.63570725917816 0.77193021774292 0
vn -0.00122156122234 0.00369917997159 0.99999243021011
# 6 normals

vt 0.3353716135025 0.43015730381012 0
vt 0.3353716135025 0.49071502685547 0
vt 0.52622318267822 0.49223136901855 0
vt 0.52622318267822 0.43015730381012 0
vt 0.77780026197433 0.49071502685547 0
vt 0.77780026197433 0.43015730381012 0
vt 0.71904557943344 0.64099591970444 0
vt 0.46746847033501 0.65310746431351 0
vt 0.90989714860916 0.99223136901855 0
vt 0.90989714860916 0.50776869058609 0
vt 0.09010285884142 0.00776863098145 0
vt 0.09010285884142 0.49223136901855 0
vt 0.15516589581966 0.49223136901855 0
vt 0.15516589581966 0.00776863098145 0
vt 0.3353716135025 0.3540620803833 0
vt 0.3353716135025 0.41461992263794 0
vt 0.77780026197433 0.41461992263794 0
vt 0.77780026197433 0.3540620803833 0
vt 0.00834660790861 0.99223136901855 0
vt 0.45077526569366 0.65310746431351 0
vt 0.19919818639755 0.64099591970444 0
vt 0.00834660790861 0.50776869058609 0
# 22 texture coordinates

o Arrow
usemtl Arrow
f 13/28/8 11/27/8 9/26/7 15/25/7
f 13/28/8 14/30/9 12/29/9 11/27/8
f 15/34/3 16/33/3 14/32/3 13/31/3
f 9/38/10 10/37/10 16/36/10 15/35/10
f 12/42/11 14/41/11 16/40/11 10/39/11
f 9/46/12 11/45/12 12/44/12 10/43/12

